<?xml version="1.0" encoding="utf-8"?><svg viewBox="0 0 58 58" xmlns="http://www.w3.org/2000/svg" xmlns:xlink="http://www.w3.org/1999/xlink"><style>:root>svg{display:none}:root>svg:target{display:block}</style><svg fill="none" viewBox="0 0 58 58" id="chat1" xmlns="http://www.w3.org/2000/svg"><g clip-path="url(#aclip0)"><path d="M38.557 18.593a19.08 19.08 0 0119.44 18.763 19.236 19.236 0 01-.446 4.52c-.542 2.458-.865 4.959-.865 7.476v4.865a1.35 1.35 0 01-1.35 1.35h-4.864c-2.517 0-5.019.322-7.476.864-1.452.32-2.965.476-4.52.446a19.08 19.08 0 01-18.763-19.439c.157-10.337 8.507-18.687 18.844-18.845z" fill="url(#apaint0_linear)" fill-opacity=".5"/><path d="M21.212 37.46h0l36.339 4.416-1.465-.323s0 0 0 0c-.561 2.544-.9 5.155-.9 7.799v4.715h-4.714c-2.645 0-5.256.338-7.8.9a17.733 17.733 0 01-4.167.41 17.58 17.58 0 01-17.293-17.916z" stroke="#CDBBEF" stroke-opacity=".2" stroke-width="3"/><path d="M23.687 1.122A23.245 23.245 0 00.004 23.982a23.43 23.43 0 00.543 5.505c.66 2.994 1.053 6.042 1.053 9.108v5.927c0 .908.736 1.644 1.645 1.644h5.927c3.066 0 6.113.393 9.107 1.053 1.769.39 3.613.58 5.506.543a23.245 23.245 0 0022.86-23.682C46.451 11.487 36.28 1.315 23.686 1.122z" fill="url(#apaint1_linear)"/><path d="M12.346 29.278a3.613 3.613 0 100-7.225 3.613 3.613 0 000 7.225z" fill="#fff"/><path d="M12.346 29.278a3.613 3.613 0 100-7.225 3.613 3.613 0 000 7.225z" fill="url(#apaint2_linear)"/><path d="M22.563 29.278a3.613 3.613 0 100-7.225 3.613 3.613 0 000 7.225z" fill="#fff"/><path d="M22.563 29.278a3.613 3.613 0 100-7.225 3.613 3.613 0 000 7.225z" fill="url(#apaint3_linear)"/><path d="M32.78 29.278a3.613 3.613 0 100-7.225 3.613 3.613 0 000 7.225z" fill="#fff"/><path d="M32.78 29.278a3.613 3.613 0 100-7.225 3.613 3.613 0 000 7.225z" fill="url(#apaint4_linear)"/></g><defs><linearGradient id="apaint0_linear" x1="27.969" y1="18.591" x2="58" y2="18.591" gradientUnits="userSpaceOnUse"><stop stop-color="#E1D8FF"/><stop offset="1" stop-color="#F4ECFF"/></linearGradient><linearGradient id="apaint1_linear" x1="10.061" y1="1.12" x2="46.647" y2="1.12" gradientUnits="userSpaceOnUse"><stop stop-color="#E1D8FF"/><stop offset="1" stop-color="#F4ECFF"/></linearGradient><linearGradient id="apaint2_linear" x1="12.346" y1="22.053" x2="12.346" y2="29.278" gradientUnits="userSpaceOnUse"><stop stop-color="#4614E8"/><stop offset="1" stop-color="#BCA7FF"/></linearGradient><linearGradient id="apaint3_linear" x1="22.563" y1="22.053" x2="22.563" y2="29.278" gradientUnits="userSpaceOnUse"><stop stop-color="#4614E8"/><stop offset="1" stop-color="#BCA7FF"/></linearGradient><linearGradient id="apaint4_linear" x1="32.78" y1="22.053" x2="32.78" y2="29.278" gradientUnits="userSpaceOnUse"><stop stop-color="#4614E8"/><stop offset="1" stop-color="#BCA7FF"/></linearGradient><clipPath id="aclip0"><path fill="#fff" d="M0 0h58v58H0z"/></clipPath></defs></svg><svg fill="none" viewBox="0 0 10 18" id="facebook" xmlns="http://www.w3.org/2000/svg"><path d="M8.579 0H6.704C5.269 0 4.239.34 3.613 1.021c-.626.681-.94 1.684-.94 3.01v1.263c0 .334-.27.604-.604.604h-.648a.604.604 0 00-.604.605v1.893c0 .333.27.604.604.604h.648c.334 0 .605.27.605.604v7.791c0 .334.27.605.604.605h2.516c.334 0 .604-.27.604-.605v-7.79c0-.334.27-.605.605-.605h1.27c.334 0 .633-.27.668-.601l.2-1.9a.532.532 0 00-.54-.6H7.002a.604.604 0 01-.604-.605v-.947c0-.233.01-.413.033-.54.021-.128.07-.253.147-.377.077-.124.2-.21.372-.257.17-.047.398-.071.682-.071h.947c.333 0 .604-.27.604-.605V.604A.604.604 0 008.579 0z" fill="#273895"/></svg><svg fill="none" viewBox="0 0 18 18" id="instagram" xmlns="http://www.w3.org/2000/svg"><path d="M13.127 0H4.872A4.878 4.878 0 000 4.872v8.256A4.878 4.878 0 004.872 18h8.256A4.878 4.878 0 0018 13.128V4.872A4.878 4.878 0 0013.127 0zM9 13.922A4.927 4.927 0 014.078 9 4.927 4.927 0 019 4.078 4.927 4.927 0 0113.922 9 4.927 4.927 0 019 13.922zm5.04-8.683a1.456 1.456 0 01-1.455-1.454c0-.802.652-1.455 1.454-1.455.802 0 1.455.653 1.455 1.455s-.653 1.454-1.455 1.454z" fill="#273895"/><path d="M9 5.134A3.87 3.87 0 005.134 9 3.871 3.871 0 009 12.867 3.87 3.87 0 0012.867 9 3.87 3.87 0 009 5.134zM14.04 3.386a.4.4 0 100 .799.4.4 0 000-.8z" fill="#273895"/></svg><svg fill="none" viewBox="0 0 18 18" id="twitter" xmlns="http://www.w3.org/2000/svg"><path d="M.355 14.696a10.446 10.446 0 005.608 1.616c2.933 0 5.62-1.126 7.568-3.172a10.292 10.292 0 002.838-7.256c.706-.605 1.537-1.76 1.537-2.884a.563.563 0 00-.847-.485c-.664.39-1.27.492-1.892.317-1.271-1.24-3.163-1.5-4.758-.64-1.393.75-2.168 2.122-2.098 3.622a9.32 9.32 0 01-6.046-3.302.563.563 0 00-.92.075c-.73 1.25-.723 2.7-.087 3.871a.585.585 0 00-.49.583c0 1.177.53 2.258 1.383 2.996a.562.562 0 00-.144.583 4.038 4.038 0 002.285 2.448 6.55 6.55 0 01-3.567.595c-.588-.08-.878.711-.37 1.033zm5.762-1.435c.42-.324.197-.997-.33-1.008a2.934 2.934 0 01-2.305-1.199c.254-.017.518-.056.768-.123.571-.154.544-.978-.036-1.094a2.887 2.887 0 01-2.188-1.965c.283.07.571.109.858.114.57.003.785-.727.32-1.032-1.046-.69-1.492-1.907-1.196-3.051a10.458 10.458 0 006.927 3.092.561.561 0 00.576-.688c-.357-1.544.506-2.626 1.432-3.125.917-.495 2.388-.65 3.516.534.335.353 1.466.367 2.042.233-.258.486-.655.947-1.026 1.206a.562.562 0 00-.24.489 9.146 9.146 0 01-2.518 6.72c-1.734 1.82-4.132 2.822-6.753 2.822a9.446 9.446 0 01-3.03-.496 7.596 7.596 0 003.183-1.43z" fill="#273895"/><path d="M6.117 13.26c.42-.323.197-.996-.33-1.008a2.934 2.934 0 01-2.305-1.198c.254-.017.518-.056.768-.123.571-.154.544-.978-.036-1.094a2.887 2.887 0 01-2.188-1.965c.283.07.571.109.858.114.57.003.785-.727.32-1.032-1.046-.69-1.492-1.907-1.196-3.051a10.458 10.458 0 006.927 3.092.561.561 0 00.576-.688c-.357-1.544.506-2.626 1.432-3.125.917-.495 2.388-.65 3.516.534.335.353 1.466.367 2.042.233-.258.486-.655.947-1.026 1.206a.562.562 0 00-.24.489 9.146 9.146 0 01-2.518 6.72c-1.734 1.82-4.132 2.822-6.753 2.822a9.446 9.446 0 01-3.03-.496 7.596 7.596 0 003.183-1.43z" fill="#273895"/></svg><svg fill="none" viewBox="0 0 18 18" id="vk" xmlns="http://www.w3.org/2000/svg"><g clip-path="url(#eclip0)" fill="#273895"><path d="M9.109 14.625c2.604 0 1.675-1.649 1.876-2.123-.003-.354-.006-.694.006-.901.165.046.555.244 1.359 1.025 1.24 1.253 1.558 1.999 2.56 1.999h1.846c.585 0 .89-.242 1.042-.445.147-.197.291-.542.134-1.079-.412-1.293-2.813-3.526-2.963-3.761.023-.044.059-.101.078-.131h-.002c.474-.627 2.283-3.337 2.55-4.422v-.006c.145-.495.013-.816-.124-.997-.205-.272-.532-.409-.974-.409h-1.846c-.618 0-1.086.311-1.323.879-.397 1.009-1.512 3.083-2.347 3.818a48.096 48.096 0 01.005-2.425c.027-1.152.114-2.272-1.08-2.272H7.003c-.748 0-1.464.817-.689 1.788.678.85.244 1.324.39 3.684-.57-.611-1.584-2.262-2.301-4.372-.201-.57-.506-1.1-1.363-1.1H1.196C.447 3.376 0 3.785 0 4.468c0 1.535 3.397 10.158 9.109 10.158zM3.04 4.501c.163 0 .18 0 .3.342.734 2.163 2.381 5.362 3.585 5.362.903 0 .903-.926.903-1.275V6.154c-.05-.919-.385-1.377-.604-1.654l2.63.003c.002.013-.014 3.071.008 3.812 0 1.053.836 1.655 2.14.335 1.376-1.553 2.328-3.875 2.366-3.97.056-.134.105-.18.282-.18h1.854l-.002.007c-.169.787-1.835 3.297-2.392 4.076a.633.633 0 00-.025.037c-.245.401-.445.844.034 1.466a8.218 8.218 0 00.337.362c.532.549 2.259 2.331 2.413 3.044-.103.017-.216.005-1.96.009-.37 0-.66-.555-1.768-1.673-.996-.969-1.643-1.365-2.232-1.365-1.143 0-1.06.928-1.049 2.05.004 1.216-.004.832.005.908-.067.027-.258.079-.757.079-4.759 0-7.858-7.553-7.977-8.997.041-.004.609-.002 1.91-.002z"/><path d="M3.041 4.5c.163 0 .18 0 .3.343.734 2.163 2.381 5.362 3.585 5.362.903 0 .903-.926.903-1.275V6.154c-.05-.919-.385-1.377-.604-1.654l2.63.003c.002.013-.014 3.071.008 3.812 0 1.053.836 1.655 2.14.335 1.376-1.553 2.328-3.875 2.366-3.97.056-.134.105-.18.282-.18h1.854l-.002.007c-.169.787-1.835 3.297-2.392 4.076a.633.633 0 00-.025.037c-.245.401-.445.844.034 1.466.044.053.157.175.322.346l.015.016c.532.549 2.259 2.331 2.413 3.044-.103.017-.216.005-1.96.009-.37 0-.66-.555-1.768-1.673-.996-.969-1.643-1.365-2.232-1.365-1.143 0-1.06.928-1.049 2.05.004 1.216-.004.832.005.908-.067.027-.258.079-.757.079-4.759 0-7.858-7.553-7.977-8.997.041-.004.609-.002 1.91-.002z"/></g><defs><clipPath id="eclip0"><path fill="#fff" d="M0 0h18v18H0z"/></clipPath></defs></svg></svg>