<svg width="18" height="18" fill="none" xmlns="http://www.w3.org/2000/svg"><path d="M13.127 0H4.872A4.878 4.878 0 000 4.872v8.256A4.878 4.878 0 004.872 18h8.256A4.878 4.878 0 0018 13.128V4.872A4.878 4.878 0 0013.127 0zM9 13.922A4.927 4.927 0 014.078 9 4.927 4.927 0 019 4.078 4.927 4.927 0 0113.922 9 4.927 4.927 0 019 13.922zm5.04-8.683a1.456 1.456 0 01-1.455-1.454c0-.802.652-1.455 1.454-1.455.802 0 1.455.653 1.455 1.455s-.653 1.454-1.455 1.454z" fill="#273895"/><path d="M9 5.134A3.87 3.87 0 005.134 9 3.871 3.871 0 009 12.867 3.87 3.87 0 0012.867 9 3.87 3.87 0 009 5.134zm5.04-1.748a.4.4 0 100 .799.4.4 0 000-.8z" fill="#273895"/></svg>