<svg width="18" height="18" fill="none" xmlns="http://www.w3.org/2000/svg"><path d="M.355 14.696a10.446 10.446 0 005.608 1.616c2.933 0 5.62-1.126 7.568-3.172a10.292 10.292 0 002.838-7.256c.706-.605 1.537-1.76 1.537-2.884a.563.563 0 00-.847-.485c-.664.39-1.27.492-1.892.317-1.271-1.24-3.163-1.5-4.758-.64-1.393.75-2.168 2.122-2.098 3.622a9.32 9.32 0 01-6.046-3.302.563.563 0 00-.92.075c-.73 1.25-.723 2.7-.087 3.871a.585.585 0 00-.49.583c0 1.177.53 2.258 1.383 2.996a.562.562 0 00-.144.583 4.038 4.038 0 002.285 2.448 6.55 6.55 0 01-3.567.595c-.588-.08-.878.711-.37 1.033zm5.762-1.435c.42-.324.197-.997-.33-1.008a2.934 2.934 0 01-2.305-1.199c.254-.017.518-.056.768-.123.571-.154.544-.978-.036-1.094a2.887 2.887 0 01-2.188-1.965c.283.07.571.109.858.114.57.003.785-.727.32-1.032-1.046-.69-1.492-1.907-1.196-3.051a10.458 10.458 0 006.927 3.092.561.561 0 00.576-.688c-.357-1.544.506-2.626 1.432-3.125.917-.495 2.388-.65 3.516.534.335.353 1.466.367 2.042.233-.258.486-.655.947-1.026 1.206a.562.562 0 00-.24.489 9.146 9.146 0 01-2.518 6.72c-1.734 1.82-4.132 2.822-6.753 2.822a9.446 9.446 0 01-3.03-.496 7.596 7.596 0 003.183-1.43z" fill="#273895"/><path d="M6.117 13.26c.42-.323.197-.996-.33-1.008a2.934 2.934 0 01-2.305-1.198c.254-.017.518-.056.768-.123.571-.154.544-.978-.036-1.094a2.887 2.887 0 01-2.188-1.965c.283.07.571.109.858.114.57.003.785-.727.32-1.032-1.046-.69-1.492-1.907-1.196-3.051a10.458 10.458 0 006.927 3.092.561.561 0 00.576-.688c-.357-1.544.506-2.626 1.432-3.125.917-.495 2.388-.65 3.516.534.335.353 1.466.367 2.042.233-.258.486-.655.947-1.026 1.206a.562.562 0 00-.24.489 9.146 9.146 0 01-2.518 6.72c-1.734 1.82-4.132 2.822-6.753 2.822a9.446 9.446 0 01-3.03-.496 7.596 7.596 0 003.183-1.43z" fill="#273895"/></svg>