<svg width="18" height="18" fill="none" xmlns="http://www.w3.org/2000/svg"><g clip-path="url(#clip0)" fill="#273895"><path d="M9.109 14.625c2.604 0 1.675-1.649 1.876-2.123-.003-.354-.006-.694.006-.901.165.046.555.244 1.359 1.025 1.24 1.253 1.558 1.999 2.56 1.999h1.846c.585 0 .89-.242 1.042-.445.147-.197.291-.542.134-1.079-.412-1.293-2.813-3.526-2.963-3.761a2.07 2.07 0 01.078-.131h-.002c.474-.627 2.283-3.337 2.55-4.422v-.006c.145-.495.013-.816-.124-.997-.205-.272-.532-.409-.974-.409h-1.846c-.618 0-1.086.311-1.323.879-.397 1.009-1.512 3.083-2.347 3.818a48.096 48.096 0 01.005-2.425c.027-1.152.114-2.272-1.08-2.272H7.003c-.748 0-1.464.817-.689 1.788.678.85.244 1.324.39 3.684-.57-.611-1.584-2.262-2.301-4.372-.201-.57-.506-1.1-1.363-1.1H1.196C.447 3.376 0 3.785 0 4.468c0 1.535 3.397 10.158 9.109 10.158zM3.04 4.501c.163 0 .18 0 .3.342.734 2.163 2.381 5.362 3.585 5.362.903 0 .903-.926.903-1.275V6.154c-.05-.919-.385-1.377-.604-1.654l2.63.003c.002.013-.014 3.071.008 3.812 0 1.053.836 1.655 2.14.335 1.376-1.553 2.328-3.875 2.366-3.97.056-.134.105-.18.282-.18h1.854l-.002.007c-.169.787-1.835 3.297-2.392 4.076a.633.633 0 00-.025.037c-.245.401-.445.844.034 1.466a8.218 8.218 0 00.337.362c.532.549 2.259 2.331 2.413 3.044-.103.017-.216.005-1.96.009-.37 0-.66-.555-1.768-1.673-.996-.969-1.643-1.365-2.232-1.365-1.143 0-1.06.928-1.049 2.05.004 1.216-.004.832.005.908-.067.027-.258.079-.757.079-4.759 0-7.858-7.553-7.977-8.997.041-.004.609-.002 1.91-.002z"/><path d="M3.041 4.5c.163 0 .18 0 .3.343.734 2.163 2.381 5.362 3.585 5.362.903 0 .903-.926.903-1.275V6.154c-.05-.919-.385-1.377-.604-1.654l2.63.003c.002.013-.014 3.071.008 3.812 0 1.053.836 1.655 2.14.335 1.376-1.553 2.328-3.875 2.366-3.97.056-.134.105-.18.282-.18h1.854l-.002.007c-.169.787-1.835 3.297-2.392 4.076a.633.633 0 00-.025.037c-.245.401-.445.844.034 1.466.044.053.157.175.322.346l.015.016c.532.549 2.259 2.331 2.413 3.044-.103.017-.216.005-1.96.009-.37 0-.66-.555-1.768-1.673-.996-.969-1.643-1.365-2.232-1.365-1.143 0-1.06.928-1.049 2.05.004 1.216-.004.832.005.908-.067.027-.258.079-.757.079-4.759 0-7.858-7.553-7.977-8.997.041-.004.609-.002 1.91-.002z"/></g><defs><clipPath id="clip0"><path fill="#fff" d="M0 0h18v18H0z"/></clipPath></defs></svg>